<svg xmlns="http://www.w3.org/2000/svg" xmlns:xlink="http://www.w3.org/1999/xlink" viewBox="0 0 1367 769"><defs><style>.cls-1{fill:url(#Naamloos_verloop_207);}.cls-2{fill:url(#Naamloos_verloop_194);}.cls-3{fill:url(#Naamloos_verloop_198);}</style><linearGradient id="Naamloos_verloop_207" x1="1217.25" y1="918.75" x2="149.25" y2="-149.25" gradientUnits="userSpaceOnUse"><stop offset="0" stop-color="#cc69ff"/><stop offset="0.15" stop-color="#a27dff"/><stop offset="0.36" stop-color="#7293ff"/><stop offset="0.55" stop-color="#4ca5ff"/><stop offset="0.73" stop-color="#30b2ff"/><stop offset="0.88" stop-color="#20b9ff"/><stop offset="1" stop-color="#1abcff"/></linearGradient><linearGradient id="Naamloos_verloop_194" y1="703.68" x2="1367" y2="703.68" gradientUnits="userSpaceOnUse"><stop offset="0" stop-color="#34a1ff"/><stop offset="1" stop-color="#9a69ff"/></linearGradient><linearGradient id="Naamloos_verloop_198" y1="58.82" x2="1367" y2="58.82" gradientTransform="matrix(1, 0, 0, -1, 0, 770)" gradientUnits="userSpaceOnUse"><stop offset="0" stop-color="#0894ff"/><stop offset="1" stop-color="#e8a7ff"/></linearGradient></defs><g id="Laag_2" data-name="Laag 2"><g id="Laag_1-2" data-name="Laag 1"><polygon class="cls-1" points="0 0 0 769 1367 769 1367 1 0 0"/><path class="cls-2" d="M0,766.8V682.94c0-1.76,2.76-1.25,5.06-1.82C134,649.19,225.44,635.77,343,682.1c59,23.25,107-95.1,299-16.3,77.07,31.64,108,37.88,133,40.14,7.09.64,35,.94,42,0,86.79-11.53,205.12-88.64,295-28.59,56.94,38,104.41,18.65,127.26,14.31a31.3,31.3,0,0,0,6.66-2c17.77-7.86,111.13-47.38,121.08-15V766.8c0,1.22-1.45,2.2-3.24,2.2H3.24C1.45,769,0,768,0,766.8Z"/><path class="cls-3" d="M1,678.11S96.67,628.29,285.67,670c73,16.12,129.66,33,172.33,39.1,52.83,7.52,95.9-16.57,104-18.54,67-16.31,102.42-37.58,181-33,60.5,3.52,133.85,22.84,155.3,34.36,16.11,8.67,38.84,10.66,58.13,5.05,68.26-19.84,224.91-57.87,288.57-18.24,84,52.29,122-3.12,122-3.12V769H0Z"/></g></g></svg>