<svg xmlns="http://www.w3.org/2000/svg" xmlns:xlink="http://www.w3.org/1999/xlink" viewBox="0 0 1366 768"><defs><style>.cls-1{fill:#fff;}.cls-2{fill:url(#Naamloos_verloop_132);}.cls-3{fill:url(#Naamloos_verloop_152);}.cls-4{fill:url(#Naamloos_verloop_142);}</style><linearGradient id="Naamloos_verloop_132" y1="621.1" x2="422.45" y2="621.1" gradientUnits="userSpaceOnUse"><stop offset="0" stop-color="#1dbaff" stop-opacity="0.5"/><stop offset="0.65" stop-color="#1de8ff" stop-opacity="0.5"/><stop offset="1" stop-color="#1dffff" stop-opacity="0.5"/></linearGradient><linearGradient id="Naamloos_verloop_152" x1="1011" y1="697.5" x2="1366" y2="697.5" gradientUnits="userSpaceOnUse"><stop offset="0" stop-color="#f170ff" stop-opacity="0.5"/><stop offset="1" stop-color="#be70ff" stop-opacity="0.6"/></linearGradient><linearGradient id="Naamloos_verloop_142" x1="1108" y1="87" x2="1366" y2="87" gradientUnits="userSpaceOnUse"><stop offset="0" stop-color="#1dbaff" stop-opacity="0.9"/><stop offset="1" stop-color="#be70ff" stop-opacity="0.7"/></linearGradient></defs><g id="Laag_2" data-name="Laag 2"><g id="Laag_1-2" data-name="Laag 1"><rect class="cls-1" width="1366" height="768"/><path class="cls-2" d="M0,475.61a1.41,1.41,0,0,1,2.79-.32C10.88,510.49,39.21,598.8,120,602c62.19,2.46,113.93,42.17,139.93,66.43a154.31,154.31,0,0,1,23.89,28.42C297.93,718.43,338.25,768,411,768H2.57A2.57,2.57,0,0,1,0,765.43Z"/><path class="cls-3" d="M1011,768s25.42-91,199-100c116-6,156-41,156-41V768Z"/><path class="cls-4" d="M1108,0s144.11,36.3,144.11,72.6,79,78.93,79,78.93S1349.73,174,1366,174V0Z"/></g></g></svg>