<svg xmlns="http://www.w3.org/2000/svg" viewBox="0 0 1366 101"><defs><style>.cls-1{fill:#fff;}</style></defs><g id="Laag_2" data-name="Laag 2"><g id="Laag_1-2" data-name="Laag 1"><path class="cls-1" d="M1366,13.89C1344.87,5.3,1320.33.38,1294.16.38s-50.7,4.92-71.84,13.51C1201.19,5.3,1176.66.38,1150.49.38s-50.71,4.92-71.84,13.51C1057.51,5.3,1033,.38,1006.81.38S956.1,5.3,935,13.89C913.84,5.3,889.3.38,863.13.38s-50.7,4.92-71.84,13.51c-2.25-.92-4.56-1.78-6.89-2.62l-1-.35-.42-.14A194,194,0,0,0,718.38,0c-26.17,0-50.7,4.92-71.84,13.52C625.41,4.92,600.88,0,574.71,0S524,4.92,502.87,13.52C481.73,4.92,457.2,0,431,0s-50.71,4.92-71.84,13.52C338.06,4.92,313.52,0,287.35,0s-50.7,4.92-71.84,13.52C194.38,4.92,169.85,0,143.68,0S93,4.92,71.84,13.52C50.7,4.92,26.17,0,0,0V101H1366Z"/></g></g></svg>